<svg width="83" height="74" viewBox="0 0 83 74" fill="none" xmlns="http://www.w3.org/2000/svg">
<path d="M8.93693 9.33369L8.93714 9.33347C13.0638 5.20602 18.5988 2.79189 24.4313 2.57547C30.2639 2.35906 35.9625 4.35639 40.3838 8.16667L41.5238 9.14922L42.6643 8.16711C47.0816 4.36317 52.7727 2.3681 58.5982 2.58129C64.4238 2.79448 69.9538 5.20021 74.0813 9.31685C78.2087 13.4335 80.6289 18.9572 80.8574 24.7822C81.085 30.5856 79.1203 36.2613 75.3554 40.6815L45.695 70.4373C44.6416 71.491 43.2289 72.1076 41.7401 72.1635C40.26 72.219 38.8134 71.7163 37.6869 70.7556L37.3167 70.4156L7.68552 40.6814C3.92249 36.265 1.95682 30.5945 2.18023 24.7951C2.40446 18.9742 4.81751 13.4524 8.93693 9.33369ZM11.9098 12.2405L11.8928 12.2566L11.8762 12.2731C8.42994 15.7204 6.44335 20.3623 6.32878 25.2354C6.21421 30.1085 7.98046 34.8387 11.2609 38.4441L11.273 38.4573L11.2853 38.4703L11.8439 39.0595L11.8599 39.0764L11.8764 39.0929L40.2851 67.5016L41.5207 68.7372L42.756 67.5013L63.0458 47.2039L64.2808 45.9684L63.0454 44.7333L49.5202 31.2119L48.2848 29.9769L47.0496 31.2121L42.994 35.2677L42.9937 35.268C41.169 37.0936 38.6938 38.1195 36.1127 38.1201C33.5315 38.1207 31.0559 37.096 29.2303 35.2713C27.4047 33.4466 26.3788 30.9714 26.3782 28.3903C26.3776 25.8091 27.4024 23.3335 29.2271 21.5079L27.9914 20.2728L29.2271 21.5079L37.2695 13.4616L38.6504 12.0801L37.1239 10.8613C33.5988 8.04688 29.186 6.5811 24.6776 6.72708C20.1692 6.87306 15.8605 8.62124 12.5249 11.6578L12.5118 11.6697L12.499 11.6819L11.9098 12.2405ZM65.9849 41.7941L67.2185 43.0277L68.4539 41.7958L71.1628 39.0946L71.1641 39.0933C74.6681 35.5918 76.663 30.8582 76.722 25.9049C76.7811 20.9515 74.8997 16.1717 71.4802 12.5876C68.0607 9.00345 63.3746 6.89957 58.4239 6.72587C53.4733 6.55217 48.6512 8.32244 44.9889 11.6581L44.9739 11.6718L44.9592 11.6858L44.3738 12.2444L44.359 12.2585L44.3446 12.273L32.1704 24.4471C32.1702 24.4473 32.1701 24.4474 32.17 24.4476C31.2042 25.4129 30.6265 26.6991 30.5463 28.0623C30.4662 29.4256 30.8894 30.7708 31.7357 31.8427L31.7696 31.8856L31.8061 31.9264L32.1045 32.2592L32.1361 32.2945L32.1696 32.328C33.1349 33.2939 34.4213 33.8719 35.7847 33.952C37.148 34.0321 38.4932 33.6089 39.5651 32.7627L39.6081 32.7288L39.6488 32.6922L39.9817 32.3938L40.0171 32.362L40.0508 32.3284L46.8151 25.564C46.8152 25.564 46.8152 25.5639 46.8153 25.5638C47.2051 25.1742 47.7338 24.9553 48.285 24.9553C48.8362 24.9553 49.3648 25.1742 49.7547 25.5638C49.7547 25.5639 49.7548 25.564 49.7549 25.564L65.9849 41.7941Z" stroke="white" stroke-width="3.49412"/>
</svg>
