<svg width="89" height="88" viewBox="0 0 89 88" fill="none" xmlns="http://www.w3.org/2000/svg">
<path d="M37.4844 7.28369C20.6976 10.692 8.06201 25.5343 8.06201 43.3297C8.06201 63.645 24.5283 80.1113 44.8436 80.1113C62.639 80.1113 77.4813 67.4757 80.8896 50.6889" stroke="white" stroke-width="4.65882" stroke-linecap="round" stroke-linejoin="round"/>
<path d="M69.7399 65.5462C71.094 65.2604 72.3976 64.7731 73.6071 64.1005M54.2641 63.1465C56.4367 64.0932 58.5208 64.7972 60.5163 65.2585M40.3066 54.4327C41.8105 55.4887 43.42 56.7559 44.9858 57.8483M11.7036 50.347C12.8761 49.7753 14.1433 49.1163 15.5744 48.5518M24.2664 47.3393C26.3128 47.565 28.6069 48.1513 31.2068 49.2437M66.3243 27.3117C66.3243 25.863 65.7488 24.4737 64.7245 23.4494C63.7002 22.4251 62.3109 21.8496 60.8622 21.8496C59.4136 21.8496 58.0243 22.4251 57 23.4494C55.9756 24.4737 55.4002 25.863 55.4002 27.3117C55.4002 28.7603 55.9756 30.1496 57 31.1739C58.0243 32.1983 59.4136 32.7737 60.8622 32.7737C62.3109 32.7737 63.7002 32.1983 64.7245 31.1739C65.7488 30.1496 66.3243 28.7603 66.3243 27.3117Z" stroke="white" stroke-width="4.65882" stroke-linecap="round" stroke-linejoin="round"/>
<path d="M64.4606 49.5965C63.4767 50.4916 62.193 50.9853 60.8629 50.9802C59.5328 50.9853 58.2491 50.4916 57.2652 49.5965C48.4276 41.4253 36.5858 32.2927 42.3611 19.0381C45.4854 11.8682 52.9793 7.28369 60.8629 7.28369C68.7465 7.28369 76.2404 11.8718 79.3611 19.0381C85.1327 32.2781 73.3164 41.4508 64.4606 49.5965Z" stroke="white" stroke-width="4.65882" stroke-linecap="round" stroke-linejoin="round"/>
</svg>
