<svg width="90" height="90" viewBox="0 0 90 90" fill="none" xmlns="http://www.w3.org/2000/svg">
<path d="M42.8904 5.43397C43.6764 3.75952 46.058 3.75951 46.8441 5.43397L56.0808 25.1108C57.3793 27.8769 59.97 29.8147 62.9902 30.2789L84.1098 33.5249C85.8661 33.7948 86.582 35.9376 85.3406 37.209L69.7139 53.2136C67.6794 55.2973 66.7553 58.2235 67.2242 61.0978L70.8612 83.3962C71.1547 85.1956 69.2445 86.5411 67.6491 85.6589L49.3058 75.5153C46.5438 73.988 43.1906 73.988 40.4286 75.5153L22.0853 85.6589C20.4899 86.5411 18.5797 85.1956 18.8732 83.3962L22.5102 61.0978C22.9791 58.2234 22.055 55.2973 20.0205 53.2136L4.39384 37.209C3.15244 35.9376 3.86829 33.7948 5.62463 33.5249L26.7441 30.2789C29.7644 29.8147 32.3551 27.8769 33.6536 25.1108L42.8904 5.43397L39.7274 3.9492L42.8904 5.43397Z" stroke="white" stroke-width="6.98824" stroke-linecap="round" stroke-linejoin="round"/>
</svg>
