<svg width="132" height="88" viewBox="0 0 132 88" fill="none" xmlns="http://www.w3.org/2000/svg">
<path d="M123.676 80.9029V64.7749H126.109L128.369 62.5399L101.586 35.7561H98.2605V40.3981H90.469L85.827 35.7561H72.9656L46.2111 62.5106L48.4717 64.7712H52.0529V80.8993H45.0625C34.608 70.8983 31.8279 48.2152 32.8046 31.3409L32.9765 30.9971H33.0606C37.6331 30.9971 41.6862 33.2138 44.2102 36.6304L44.2358 36.6669C46.1379 39.2385 47.2829 42.4758 47.2829 45.9765C47.2829 48.3908 46.7415 50.677 45.7685 52.7218L45.8087 52.6267C47.8502 52.1042 49.748 51.1291 51.3615 49.7735L51.3396 49.7918C53.0204 48.33 54.3675 46.524 55.2895 44.4963C56.2116 42.4685 56.6871 40.2663 56.6839 38.0387C56.6839 34.5453 55.5353 31.3226 53.5965 28.7255L53.6258 28.7657C51.9624 26.446 49.6098 24.7098 46.9028 23.8042C44.1957 22.8986 41.2721 22.8696 38.5476 23.7213L38.6427 23.6957C39.6121 23.0922 40.7278 22.5581 41.902 22.1521L42.019 22.1155C43.6151 21.5267 45.3037 21.2281 47.0049 21.2339C50.9665 21.2339 54.5549 22.8178 57.1777 25.3821L57.1741 25.3784C57.5651 23.3269 57.4483 21.2108 56.8339 19.2147L56.8595 19.3062C56.2529 17.527 55.2906 15.8899 54.0309 14.4946C52.7713 13.0994 51.2409 11.9751 49.5328 11.1904C47.8247 10.4056 45.9748 9.97683 44.0956 9.93007C42.2165 9.88331 40.3475 10.2196 38.6025 10.9184L38.6939 10.8855C37.8109 11.1889 36.9524 11.5594 36.126 11.9939L36.2321 11.9426C35.9818 10.799 35.6127 9.68459 35.1311 8.61754L35.1749 8.72362C31.9559 1.50642 24.5741 -1.90282 18.6738 1.07844C17.0813 1.8944 15.7125 3.08741 14.6866 4.55352L14.6646 4.5901C16.7416 4.79275 18.7424 5.47811 20.5074 6.59148C22.2724 7.70485 23.7527 9.21539 24.8302 11.0025L24.8631 11.0611C23.495 10.3741 22.0461 9.86166 20.5503 9.53569L20.426 9.51374C11.3542 7.56404 2.72133 12.4913 1.174 20.5426C0.760565 22.7512 0.897505 25.0277 1.57272 27.1708L1.54712 27.0757C3.57492 24.7717 6.20031 23.0733 9.13309 22.1682C12.0659 21.2632 15.1918 21.1867 18.1653 21.9472L18.0483 21.9216C19.5444 22.2362 20.8686 22.6898 22.1086 23.286L22.0026 23.2385C19.0346 22.8411 16.0156 23.3391 13.3324 24.6686C10.6493 25.9981 8.42431 28.0986 6.94264 30.7008L6.9024 30.7739C5.35555 33.3833 4.54286 36.3624 4.55032 39.3958C4.55032 45.1315 7.39257 50.2015 11.7492 53.2742L11.8041 53.3108C13.6771 54.5728 15.8168 55.3841 18.0556 55.6811L18.1324 55.6885C16.5194 53.014 15.6704 49.9484 15.6779 46.8252C15.6779 43.6317 16.5448 40.6395 18.0592 38.0753L18.0154 38.1557C19.1396 36.1968 20.682 34.5098 22.5326 33.2149C24.3833 31.92 26.4966 31.0491 28.7223 30.6642L28.8137 30.6496C23.6304 54.2545 22.1964 70.7008 26.4726 80.8956H14.0135V87.7726H131.61V80.8956H123.676V80.9029ZM94.5952 65.148H120.808V80.9029H94.5952V65.148ZM54.8659 62.0241L72.9729 43.9171L91.0799 62.0241V80.9029H71.1988V66.6953H61.143V80.9029H54.8439V62.0241H54.8659Z" fill="white"/>
</svg>
